<svg xmlns="http://www.w3.org/2000/svg" width="1050" height="600" style="shape-rendering:geometricPrecision;text-rendering:geometricPrecision;image-rendering:optimizeQuality;fill-rule:evenodd;clip-rule:evenodd"><path fill="#02050a" d="M-.5-.5h1050v600H-.5V-.5Z" style="opacity:1"/><path fill="#0079a7" d="M554.5 94.5c-20.36-.286-40.694.047-61 1 .763-.768 1.763-1.268 3-1.5a562.71 562.71 0 0 1 58 .5Z" style="opacity:1"/><path fill="#00aded" d="M554.5 94.5c14.169 3.335 23.336 12.002 27.5 26 3.364 19.771-3.802 34.271-21.5 43.5 24.339 22.981 28.839 49.481 13.5 79.5-18.864 26.17-43.364 33.337-73.5 21.5-17.784-10.051-28.284-25.218-31.5-45.5a2400.05 2400.05 0 0 1 0-98c3.928-12.758 12.094-21.425 24.5-26 20.306-.953 40.64-1.286 61-1Z" style="opacity:1"/><path fill="#0c0f13" d="M496.5 107.5c19.336-.167 38.67 0 58 .5 15.944 8.442 19.444 20.608 10.5 36.5a46.447 46.447 0 0 1-9.5 6.5 8432.006 8432.006 0 0 1-44 3c-11.962 3.297-21.795 9.797-29.5 19.5a624.938 624.938 0 0 1 0-50c2.626-7.454 7.46-12.788 14.5-16Z" style="opacity:1"/><path fill="#fcfcfc" d="M488.5 161.5c-.995-10.821-1.328-21.821-1-33 .966-7.396 4.966-12.563 12-15.5l25.5-.5c9.89-.114 19.723.386 29.5 1.5 11.029 6.94 12.863 15.774 5.5 26.5-3.361 2.763-7.195 4.597-11.5 5.5a409.516 409.516 0 0 0-38 2c-8.502 2.744-15.836 7.244-22 13.5Z" style="opacity:1"/><path fill="#3b3e43" d="M487.5 128.5c-.328 11.179.005 22.179 1 33-.06.543-.393.876-1 1-1.324-11.493-1.324-22.826 0-34Z" style="opacity:1"/><path fill="#ededed" d="M446.5 149.5c5.475-.989 11.142-1.322 17-1a128.507 128.507 0 0 1-.5 16c-3.142-7.644-8.642-12.644-16.5-15Z" style="opacity:1"/><path fill="#00a1dc" d="M433.5 149.5h-45v144h-1v-145c15.509-.33 30.842.004 46 1Z" style="opacity:1"/><path fill="#00adef" d="M663.5 148.5v145h-275v-144h45c15.241 2.401 25.074 11.067 29.5 26 1.319 9.287.319 18.287-3 27-4.027 5.85-8.527 11.183-13.5 16 4.675 19.02 9.342 38.02 14 57a43.117 43.117 0 0 1-13-1l-1.5-3a2630.537 2630.537 0 0 0-11.5-49h-34v58h250c1.33-33.502 1.33-67.169 0-101-.798.457-1.131 1.124-1 2a749.258 749.258 0 0 1-16 33c-5.219 1.304-10.386 1.304-15.5 0a845.063 845.063 0 0 0-17-35c-.5 31.998-.667 63.998-.5 96h-13v-127c4.599-.3 9.099.033 13.5 1l25 50a1733.13 1733.13 0 0 0 24.5-50 43.117 43.117 0 0 1 13-1Z" style="opacity:1"/><path fill="#f9fafa" d="M608.5 148.5c11.671-.167 23.338 0 35 .5a590.277 590.277 0 0 1-18 35.5 643.472 643.472 0 0 1-17-36Z" style="opacity:1"/><path fill="#f7f7f7" d="M582.5 150.5c1.333 11 1.333 22 0 33a76.03 76.03 0 0 0-11-18c4.85-4.176 8.517-9.176 11-15Z" style="opacity:1"/><path fill="#3d3e42" d="M582.5 183.5c1.333-11 1.333-22 0-33-.131-.876.202-1.543 1-2 1.333 12 1.333 24 0 36-.607-.124-.94-.457-1-1Z" style="opacity:1"/><path fill="#090d11" d="M400.5 161.5c11.005-.167 22.005 0 33 .5 16.959 7.436 21.459 19.603 13.5 36.5-3.414 4.752-7.914 7.919-13.5 9.5-10.995.5-21.995.667-33 .5v-47Z" style="opacity:1"/><path fill="#fafafa" d="M406.5 167.5c8.673-.166 17.34 0 26 .5 11.039 5.259 14.539 13.759 10.5 25.5-2.72 5.051-6.887 8.218-12.5 9.5-7.993.5-15.993.666-24 .5v-36Z" style="opacity:1"/><path fill="#f7f7f7" d="M509.5 187.5c-3.651 6.632-7.318 13.298-11 20-4.083-3.965-7.083-8.798-9-14.5 5.312-11.583 14.145-19.083 26.5-22.5l2.5.5a131.877 131.877 0 0 0-9 16.5Z" style="opacity:1"/><path fill="#03060a" d="M556.5 183.5a409.027 409.027 0 0 0 6 3c6.666 10.352 8.833 21.685 6.5 34a140.721 140.721 0 0 1-2.5 9c-2.931-.41-3.597-1.744-2-4 2.738-9.734 2.571-19.401-.5-29-1.357-3.398-3.19-6.398-5.5-9-5.513-1.316-11.18-1.316-17 0 .124.607.457.94 1 1a125.992 125.992 0 0 1 9 17c1.445 3.137 2.445 6.137 3 9l-14 22c.065-.438-.101-.772-.5-1-.708.881-1.542 1.547-2.5 2-8.517-.326-16.85.007-25 1h-17c-.763-.768-1.763-1.268-3-1.5 5.848-.173 11.515-.673 17-1.5a2148.37 2148.37 0 0 1-7-14 47.121 47.121 0 0 0-5-11 5.576 5.576 0 0 0 1-3c3.682-6.702 7.349-13.368 11-20 1.256.039 2.256-.461 3-1.5 5.848-.173 11.515-.673 17-1.5 9.182.327 18.182-.007 27-1Z" style="opacity:1"/><path fill="#515357" d="M558.5 187.5c-5.526-.321-10.86.012-16 1-.543-.06-.876-.393-1-1 5.82-1.316 11.487-1.316 17 0Z" style="opacity:1"/><path fill="#f6f6f6" d="M558.5 187.5c2.31 2.602 4.143 5.602 5.5 9 3.071 9.599 3.238 19.266.5 29a5405.202 5405.202 0 0 1-13-20 125.992 125.992 0 0 0-9-17c5.14-.988 10.474-1.321 16-1Z" style="opacity:1"/><path fill="#fdfdfd" d="M605.5 198.5a361.625 361.625 0 0 0 11 23 50.512 50.512 0 0 0 20 0 37810.48 37810.48 0 0 0 9-20 1369.272 1369.272 0 0 1 1 74h-42a1482.71 1482.71 0 0 1 1-77Z" style="opacity:1"/><path fill="#014a68" d="M650.5 280.5c.332-33.171-.002-66.171-1-99-.131-.876.202-1.543 1-2 1.33 33.831 1.33 67.498 0 101Z" style="opacity:1"/><path fill="#f9f9f9" d="M503.5 274.5a361.608 361.608 0 0 1-38 1 1261.78 1261.78 0 0 0-14-53.5 86.92 86.92 0 0 0 10.5-11.5c1.057 29.815 14.89 51.148 41.5 64Z" style="opacity:1"/><path fill="#737477" d="M645.5 201.5c.06-.543.393-.876 1-1 1.329 25.163 1.329 50.163 0 75 .331-24.839-.002-49.506-1-74Z" style="opacity:1"/><path fill="#fcfcfc" d="M406.5 228.5c8.028-.331 16.028.002 24 1a1835.464 1835.464 0 0 0 12 45.5c-11.995.5-23.995.667-36 .5v-47Z" style="opacity:1"/><path fill="#fbfbfb" d="M582.5 239.5c.995 11.822 1.328 23.822 1 36-12.178.328-24.178-.005-36-1 17.333-6 29-17.667 35-35Z" style="opacity:1"/><path fill="#45484b" d="M605.5 198.5a1482.71 1482.71 0 0 0-1 77 763.47 763.47 0 0 1 0-78c.607.124.94.457 1 1Z" style="opacity:1"/><path fill="#3a3c40" d="M582.5 239.5c.06-.543.393-.876 1-1 1.325 12.494 1.325 24.827 0 37 .328-12.178-.005-24.178-1-36Z" style="opacity:1"/><path fill="#101417" d="M562.5 186.5a409.027 409.027 0 0 1-6-3c-9.411-10.47-21.078-14.803-35-13a121.345 121.345 0 0 1-7 13 57.15 57.15 0 0 0 15 1c-5.485.827-11.152 1.327-17 1.5-.744 1.039-1.744 1.539-3 1.5a131.877 131.877 0 0 1 9-16.5l-2.5-.5c-12.355 3.417-21.188 10.917-26.5 22.5 1.917 5.702 4.917 10.535 9 14.5a5.576 5.576 0 0 1-1 3 47.121 47.121 0 0 1 5 11 228.494 228.494 0 0 1-14.5-25c-3.477 11.087-3.144 22.087 1 33a15.83 15.83 0 0 0 3.5 5.5c5.657.499 11.324.666 17 .5-5.485.827-11.152 1.327-17 1.5 1.237.232 2.237.732 3 1.5 8.927 11.582 20.427 15.915 34.5 13a103.097 103.097 0 0 1 6.5-12c.838-.342 1.172-1.008 1-2 .958-.453 1.792-1.119 2.5-2 .399.228.565.562.5 1a162.818 162.818 0 0 1-8 15c14.005-1.382 24.005-8.715 30-22a2809.023 2809.023 0 0 1-8-15c-.555-2.863-1.555-5.863-3-9a5405.202 5405.202 0 0 0 13 20c-1.597 2.256-.931 3.59 2 4-9.547 20.278-25.547 29.444-48 27.5-20.362-5.029-32.528-17.863-36.5-38.5-2.138-23.898 7.696-40.732 29.5-50.5 21.287-5.406 38.287.76 51 18.5Z" style="opacity:1"/><path fill="#f7f7f7" d="M495.5 238.5h17c8.184-.326 16.184.008 24 1a103.097 103.097 0 0 0-6.5 12c-14.073 2.915-25.573-1.418-34.5-13Z" style="opacity:1"/><path fill="#525357" d="M512.5 238.5c8.15-.993 16.483-1.326 25-1 .172.992-.162 1.658-1 2-7.816-.992-15.816-1.326-24-1Z" style="opacity:1"/><path fill="#f7f7f7" d="M554.5 214.5c2.638 4.983 5.305 9.983 8 15-5.995 13.285-15.995 20.618-30 22a162.818 162.818 0 0 0 8-15l14-22Z" style="opacity:1"/><path fill="#f8f8f8" d="M502.5 221.5a2148.37 2148.37 0 0 0 7 14 145.053 145.053 0 0 1-17-.5 15.83 15.83 0 0 1-3.5-5.5c-4.144-10.913-4.477-21.913-1-33a228.494 228.494 0 0 0 14.5 25Z" style="opacity:1"/><path fill="#f9f9f9" d="M556.5 183.5c-8.818.993-17.818 1.327-27 1a57.15 57.15 0 0 1-15-1 121.345 121.345 0 0 0 7-13c13.922-1.803 25.589 2.53 35 13Z" style="opacity:1"/><path fill="#3b3e42" d="M503.5 274.5c.543.06.876.393 1 1-13.161 1.325-26.161 1.325-39 0a361.608 361.608 0 0 0 38-1Z" style="opacity:1"/><path fill="#3a3d41" d="M547.5 274.5c11.822.995 23.822 1.328 36 1-12.173 1.325-24.506 1.325-37 0 .124-.607.457-.94 1-1Z" style="opacity:1"/><path fill="#003a53" d="M663.5 148.5a5329.655 5329.655 0 0 1 1 146c-92.502.333-184.835-.001-277-1h276v-145Z" style="opacity:1"/><path fill="#00adef" d="M255.5 326.5a224.17 224.17 0 0 1 35 1.5c8.692 4.551 12.192 11.718 10.5 21.5-1.947 7.614-6.78 12.114-14.5 13.5-6.658.5-13.325.666-20 .5v24h-11v-61Z" style="opacity:1"/><path fill="#00adee" d="M310.5 326.5h11v25h23v-25h11v61h-11v-27h-23v27h-11v-61ZM419.5 326.5h44v9h-17v52h-11v-52h-16v-9Z" style="opacity:1"/><path fill="#00adef" d="M528.5 326.5c10.339-.166 20.672 0 31 .5 9.742 2.407 13.909 8.574 12.5 18.5-1.902 4.9-5.402 8.067-10.5 9.5 13.069 5.205 16.236 14.038 9.5 26.5-1.731 2.117-3.898 3.617-6.5 4.5a230.452 230.452 0 0 1-36 1.5v-61ZM694.5 326.5h44v9h-17v52h-11v-52h-16v-9ZM745.5 326.5h11v25h23v-25h11v61h-11v-27h-23v27h-11v-61Z" style="opacity:1"/><path fill="#02040a" d="M266.5 335.5c6.425-.37 12.758.13 19 1.5 4.171 3.854 5.004 8.354 2.5 13.5a11.532 11.532 0 0 1-4.5 3.5c-5.657.499-11.324.666-17 .5v-19ZM540.5 335.5a112.97 112.97 0 0 1 15 .5c5.035 3.013 6.202 7.18 3.5 12.5a6.978 6.978 0 0 1-3.5 2.5 112.97 112.97 0 0 1-15 .5v-16Z" style="opacity:1"/><path fill="#00adef" d="M385.5 325.5c17.328-1.178 27.495 6.822 30.5 24 2.287 13.37-1.213 24.87-10.5 34.5-21.554 9.461-34.721 2.627-39.5-20.5-1.99-12.406 1.176-23.239 9.5-32.5a74.483 74.483 0 0 1 10-5.5Z" style="opacity:1"/><path fill="#02040a" d="M387.5 334.5c10.327-.513 15.827 4.487 16.5 15 .968 7.819.301 15.486-2 23-5.601 7.991-12.268 8.991-20 3-4.706-9.885-5.706-20.218-3-31 1.261-4.755 4.095-8.088 8.5-10Z" style="opacity:1"/><path fill="#00adef" d="M601.5 325.5c17.328-1.178 27.495 6.822 30.5 24 2.287 13.37-1.213 24.87-10.5 34.5-21.554 9.461-34.721 2.627-39.5-20.5-1.99-12.406 1.176-23.239 9.5-32.5a74.483 74.483 0 0 1 10-5.5Z" style="opacity:1"/><path fill="#02040a" d="M603.5 334.5c10.327-.513 15.827 4.487 16.5 15 .968 7.819.301 15.486-2 23-5.601 7.991-12.268 8.991-20 3-4.706-9.885-5.706-20.218-3-31 1.261-4.755 4.095-8.088 8.5-10Z" style="opacity:1"/><path fill="#020409" d="M540.5 360.5c5.344-.166 10.677.001 16 .5 6.159 3.417 7.492 8.25 4 14.5a12.403 12.403 0 0 1-4 2.5c-5.323.499-10.656.666-16 .5v-18Z" style="opacity:1"/><path fill="#00adef" d="M486.5 325.5c17.328-1.178 27.495 6.822 30.5 24 2.287 13.37-1.213 24.87-10.5 34.5-21.554 9.461-34.721 2.627-39.5-20.5-1.99-12.406 1.176-23.239 9.5-32.5a74.483 74.483 0 0 1 10-5.5Z" style="opacity:1"/><path fill="#02040a" d="M488.5 334.5c10.327-.513 15.827 4.487 16.5 15 .968 7.819.301 15.486-2 23-5.601 7.991-12.268 8.991-20 3-4.706-9.885-5.706-20.218-3-31 1.261-4.755 4.095-8.088 8.5-10Z" style="opacity:1"/><path fill="#00adef" d="M660.5 325.5c17.328-1.178 27.495 6.822 30.5 24 2.287 13.37-1.213 24.87-10.5 34.5-21.554 9.461-34.721 2.627-39.5-20.5-1.99-12.406 1.176-23.239 9.5-32.5a74.483 74.483 0 0 1 10-5.5Z" style="opacity:1"/><path fill="#02040a" d="M662.5 334.5c10.327-.513 15.827 4.487 16.5 15 .968 7.819.301 15.486-2 23-5.601 7.991-12.268 8.991-20 3-4.706-9.885-5.706-20.218-3-31 1.261-4.755 4.095-8.088 8.5-10Z" style="opacity:1"/><path fill="#00adef" d="M456.5 413.5c11.419-.983 22.085 1.35 32 7 3.701-2.403 7.701-3.237 12-2.5-3.853.17-7.186 1.504-10 4 7.898 8.255 9.065 17.421 3.5 27.5a32.005 32.005 0 0 1-7.5 5.5c2.463 2.026 3.796 4.693 4 8a240.2 240.2 0 0 1-5 21c2.635 3.366 4.802 2.866 6.5-1.5-.32 5.283-3.153 7.116-8.5 5.5-1.167-.5-2-1.333-2.5-2.5a182.01 182.01 0 0 1 3.5-23c.427-4.58-1.573-7.58-6-9 6.83.04 10.996-3.627 12.5-11 2.097-6.679.931-12.679-3.5-18-2.151 2.272-3.651 4.939-4.5 8a1532.807 1532.807 0 0 1-11 37c-6.037 14.933-16.87 20.766-32.5 17.5-5.546-6.204-6.38-13.038-2.5-20.5 4.374-3.293 7.208-2.293 8.5 3-.623 3.789-2.789 6.122-6.5 7-1.033 7.26 2.133 10.093 9.5 8.5 3.566-.7 6.4-2.533 8.5-5.5a167.702 167.702 0 0 0 16-38c2.828-6.999 6.662-13.332 11.5-19-6.021-4.896-13.021-7.229-21-7-16.756.097-24.923 8.43-24.5 25 4.007 10.084 11.174 13.25 21.5 9.5 5.431-3.274 8.097-8.107 8-14.5-.405-4.408-1.572-8.408-3.5-12 9.171 12.77 6.671 22.603-7.5 29.5-14.783 1.217-21.616-5.616-20.5-20.5 3.086-9.921 9.586-16.254 19.5-19ZM572.5 414.5c1.846-.278 3.18.389 4 2a416.533 416.533 0 0 0-11 25 21.127 21.127 0 0 0 9 1v3h-11a353.372 353.372 0 0 0-9.5 32c-.667 2-.667 4 0 6 1.067 1.783 2.567 2.283 4.5 1.5a34.706 34.706 0 0 0 6.5-7.5c1.912-9.097 6.078-16.93 12.5-23.5 5.364-2.924 8.864-1.424 10.5 4.5a20.093 20.093 0 0 0 1.5-6c2.448-.415 3.781.585 4 3-3.946 9.321-6.113 18.988-6.5 29 1.049 1.017 2.216 1.184 3.5.5a102.355 102.355 0 0 0 10.5-13.5 332.421 332.421 0 0 1 21-56c1.88-1.43 3.38-1.096 4.5 1a297.543 297.543 0 0 0-23 64.5c.015 3.499 1.682 4.833 5 4a37.792 37.792 0 0 0 9-12.5c.502-1.021 1.168-1.188 2-.5-2.701 6.776-7.034 12.11-13 16-2.201.825-4.034.325-5.5-1.5-1.661-3.608-1.995-7.275-1-11-2.382 6.383-6.716 10.716-13 13-2.188.146-3.521-.854-4-3l-1-8c-2.136 4.129-4.969 7.629-8.5 10.5-2.808.92-4.975.087-6.5-2.5l-1-7c-2.405 6.439-6.905 9.605-13.5 9.5-1.597-2.026-2.597-4.359-3-7 .909-1.789 1.076-3.623.5-5.5a32.64 32.64 0 0 1-8.5 11.5c-7.417 2.922-10.25.422-8.5-7.5a270.676 270.676 0 0 1 7-21c.781-1.444.614-2.777-.5-4-7.997 9.975-14.497 20.975-19.5 33-1.699.906-3.533 1.239-5.5 1a17.65 17.65 0 0 0 .5-6c-5.615 6.42-11.948 7.42-19 3-2.1-11.704 1.066-21.871 9.5-30.5 6.828-4.511 11.161-2.844 13 5-2.17 9.002-7.837 14.502-17 16.5-2.956 8.544-.289 11.044 8 7.5 4.945-2.946 8.445-7.112 10.5-12.5a302.378 302.378 0 0 1 6.5-18.5c2.161-.722 3.828-.055 5 2-1.799 3.725-2.966 7.558-3.5 11.5l8-12c8.312-6.647 11.312-4.647 9 6a214.577 214.577 0 0 0-7.5 25c2.599-.049 4.766-1.049 6.5-3a94.09 94.09 0 0 0 7-11 308.875 308.875 0 0 1 21.5-57Z" style="opacity:1"/><path fill="#020409" d="M581.5 455.5c1.624-.14 2.79.527 3.5 2 1.555 11.393-2.278 20.56-11.5 27.5a4.934 4.934 0 0 1-3 .5c.506-11.187 4.173-21.187 11-30Z" style="opacity:1"/><path fill="#010509" d="M511.5 454.5c1.322-.17 2.489.163 3.5 1 1.151 10.349-3.349 16.682-13.5 19 1.248-7.765 4.581-14.431 10-20Z" style="opacity:1"/></svg>